name C:\Users\u0150099\Documents\master_thesis\3dpredictsim\Results\debug\Fal_s1_mtj_sc_cspx10_oy_TrackAnkleQSubtQ_MTc2_MTPm_k1_d01_MTJm_nl_MG_exp_v2_table_d01_PF_Natali2010_ls146_FDB_ig21.mot
datacolumns 130
datarows 4
range 1.13356475 1.16757170
endheader
time	pelvis_tilt	pelvis_list	pelvis_rotation	pelvis_tx	pelvis_ty	pelvis_tz	hip_flexion_l	hip_adduction_l	hip_rotation_l	hip_flexion_r	hip_adduction_r	hip_rotation_r	knee_angle_l	knee_angle_r	ankle_angle_l	ankle_angle_r	subtalar_angle_l	subtalar_angle_r	mtj_angle_l	mtj_angle_r	mtp_angle_l	mtp_angle_r	lumbar_extension	lumbar_bending	lumbar_rotation	arm_flex_l	arm_add_l	arm_rot_l	arm_flex_r	arm_add_r	arm_rot_r	elbow_flex_l	elbow_flex_r	pro_sup_l	pro_sup_r	glut_med1_l/activation	glut_med2_l/activation	glut_med3_l/activation	glut_min1_l/activation	glut_min2_l/activation	glut_min3_l/activation	semimem_l/activation	semiten_l/activation	bifemlh_l/activation	bifemsh_l/activation	sar_l/activation	add_long_l/activation	add_brev_l/activation	add_mag1_l/activation	add_mag2_l/activation	add_mag3_l/activation	tfl_l/activation	pect_l/activation	grac_l/activation	glut_max1_l/activation	glut_max2_l/activation	glut_max3_l/activation	iliacus_l/activation	psoas_l/activation	quad_fem_l/activation	gem_l/activation	peri_l/activation	rect_fem_l/activation	vas_med_l/activation	vas_int_l/activation	vas_lat_l/activation	med_gas_l/activation	lat_gas_l/activation	soleus_l/activation	tib_post_l/activation	flex_dig_l/activation	flex_hal_l/activation	tib_ant_l/activation	per_brev_l/activation	per_long_l/activation	per_tert_l/activation	ext_dig_l/activation	ext_hal_l/activation	FDB_l/activation	ercspn_l/activation	intobl_l/activation	extobl_l/activation	glut_med1_r/activation	glut_med2_r/activation	glut_med3_r/activation	glut_min1_r/activation	glut_min2_r/activation	glut_min3_r/activation	semimem_r/activation	semiten_r/activation	bifemlh_r/activation	bifemsh_r/activation	sar_r/activation	add_long_r/activation	add_brev_r/activation	add_mag1_r/activation	add_mag2_r/activation	add_mag3_r/activation	tfl_r/activation	pect_r/activation	grac_r/activation	glut_max1_r/activation	glut_max2_r/activation	glut_max3_r/activation	iliacus_r/activation	psoas_r/activation	quad_fem_r/activation	gem_r/activation	peri_r/activation	rect_fem_r/activation	vas_med_r/activation	vas_int_r/activation	vas_lat_r/activation	med_gas_r/activation	lat_gas_r/activation	soleus_r/activation	tib_post_r/activation	flex_dig_r/activation	flex_hal_r/activation	tib_ant_r/activation	per_brev_r/activation	per_long_r/activation	per_tert_r/activation	ext_dig_r/activation	ext_hal_r/activation	FDB_r/activation	ercspn_r/activation	intobl_r/activation	extobl_r/activation	
          1.13356475	         -2.91032930	         -2.21892072	          6.25038777	          1.50764112	          0.90564252	         -0.00562162	         -9.68455279	         -0.17696766	          2.19317643	         28.04089258	          2.15004012	         -5.43651548	        -24.39275911	         -6.96083721	          4.81872956	          1.92616386	          3.44332029	         -0.60237481	          0.00909226	          1.62628737	         25.29436460	          0.65420389	         -5.05325824	          0.60208417	         -1.95423889	          5.35153451	        -14.10797597	         19.19005696	         -2.76741103	        -13.45098685	         10.04047056	         42.55028218	         20.94538502	         86.51662706	         86.51662706	          0.28285562	          0.05000027	          0.05000006	          0.62333276	          0.22184743	          0.06763133	          0.05000075	          0.05000006	          0.05000007	          0.05000005	          0.05000078	          0.05000007	          0.05000011	          0.05000015	          0.05000051	          0.05000061	          0.64218612	          0.05000035	          0.05000011	          0.05000166	          0.05000079	          0.05000032	          0.09160766	          0.28681685	          0.05000003	          0.05000013	          0.05000008	          0.69884119	          0.17525584	          0.18129699	          0.14435490	          0.45203404	          0.69046907	          0.26889828	          0.53809577	          0.63704669	          0.61745809	          0.05000000	          0.05000006	          0.39102030	          0.05000003	          0.05000001	          0.09990681	          0.88996974	          0.05000002	          0.05000003	          0.05000002	          0.05028610	          0.05091435	          0.05944088	          0.05008088	          0.05007761	          0.05005206	          0.21783462	          0.08403021	          0.08402971	          0.08403022	          0.05002887	          0.05715263	          0.05905871	          0.05001768	          0.05001573	          0.12531868	          0.05000045	          0.05000989	          0.08399965	          0.05008644	          0.05002348	          0.12779826	          0.13207800	          0.14121940	          0.14630665	          0.08051537	          0.06599225	          0.05000007	          0.05000055	          0.05000050	          0.05000046	          0.11026880	          0.06116267	          0.05000061	          0.11069470	          0.05000516	          0.05000030	          0.28002752	          0.08325666	          0.13689766	          0.23661096	          0.68704864	          0.43281655	          0.05000009	          0.06020579	          0.15191400	          0.12311153	
          1.14490040	         -2.91715010	         -2.31575580	          6.58132753	          1.52587706	          0.90434265	         -0.00524754	        -11.07084715	         -0.69335297	          1.93840998	         28.03415172	          2.27934765	         -5.38125130	        -23.54549293	         -7.31582828	          3.72084131	          1.69516157	          4.05901863	         -0.88836817	         -1.15765876	          1.92633313	         27.93450707	          0.31185805	         -4.88419825	          0.79275350	         -2.07531955	          4.99888073	        -14.07544878	         19.30366677	         -3.76659746	        -13.45206196	          9.35786883	         44.15528984	         20.52141195	         86.51662706	         86.51662706	          0.23790828	          0.05000007	          0.05000002	          0.52428164	          0.18659465	          0.05688437	          0.05000098	          0.05000009	          0.05000008	          0.05000008	          0.05000062	          0.05000022	          0.05000026	          0.05000020	          0.05000068	          0.07461013	          0.54076933	          0.05000086	          0.05000013	          0.05000074	          0.05000042	          0.05000023	          0.08411021	          0.34903827	          0.05000002	          0.05000007	          0.05000004	          0.61571104	          0.17348307	          0.17614797	          0.14107563	          0.43669604	          0.67407918	          0.22616879	          0.50628143	          0.63288034	          0.53310713	          0.05000000	          0.05242333	          0.37481812	          0.05000003	          0.05000001	          0.08403105	          0.74854847	          0.05000001	          0.05000004	          0.05000004	          0.10381518	          0.05000014	          0.05000041	          0.05000028	          0.05000032	          0.05000048	          0.18322201	          0.07067740	          0.07067694	          0.07067742	          0.10612925	          0.05945128	          0.05775778	          0.05000149	          0.05000038	          0.17192743	          0.05003262	          0.05941335	          0.07067736	          0.05000016	          0.05000011	          0.19059477	          0.11109127	          0.11877903	          0.16937331	          0.08811657	          0.05668789	          0.05000001	          0.05000004	          0.05000003	          0.05000003	          0.09990571	          0.05944636	          0.05944636	          0.13822074	          0.05000059	          0.05041995	          0.27749675	          0.07219361	          0.16657543	          0.29059324	          0.69726322	          0.52712086	          0.10721372	          0.05063885	          0.14903196	          0.10523612	
          1.15623605	         -2.92153175	         -2.41401554	          6.88916926	          1.54446879	          0.90313831	         -0.00482260	        -12.38735419	         -1.22118726	          1.65486579	         28.07895412	          2.42464818	         -5.30034947	        -22.77082239	         -8.43796396	          2.37947667	          1.11984905	          4.64873288	         -1.24493957	         -2.50856728	          2.15973088	         30.99609327	         -0.05013715	         -4.70641778	          0.99435217	         -2.19462630	          4.57467712	        -14.02900038	         19.35336960	         -4.82678981	        -13.46606055	          8.87092722	         45.69247067	         20.20759529	         86.51662706	         86.51662706	          0.20010329	          0.05000009	          0.05000003	          0.44097028	          0.15694373	          0.05000020	          0.05000067	          0.05000005	          0.05000005	          0.05000003	          0.05000018	          0.05295513	          0.09893741	          0.05000039	          0.05000238	          0.06418465	          0.49877529	          0.05000636	          0.05000009	          0.05000062	          0.05000048	          0.05000027	          0.07074466	          0.38379598	          0.05000002	          0.05000011	          0.05000021	          0.51787106	          0.17140015	          0.16968487	          0.13885256	          0.40060888	          0.61691404	          0.19022926	          0.44405531	          0.68395310	          0.44839347	          0.05000000	          0.05577447	          0.31875237	          0.05000003	          0.05000001	          0.07067803	          0.62959981	          0.05000000	          0.05000034	          0.05000001	          0.15221624	          0.05905477	          0.05000037	          0.05942861	          0.05881474	          0.05000233	          0.15410698	          0.05944636	          0.05944597	          0.05944638	          0.08926485	          0.05000433	          0.05000015	          0.05000048	          0.05000113	          0.24092477	          0.07067742	          0.05000168	          0.05944638	          0.05001549	          0.05000144	          0.30357641	          0.09343827	          0.09990439	          0.26124418	          0.08439236	          0.05000098	          0.08403037	          0.05000034	          0.05000045	          0.05000073	          0.08403012	          0.05000000	          0.05000000	          0.13516871	          0.05000009	          0.05000010	          0.32592442	          0.19200504	          0.14010572	          0.40878777	          0.75134569	          0.59329750	          0.12483409	          0.05444756	          0.12534994	          0.08851350	
          1.16757170	         -2.92325379	         -2.51314864	          7.17284698	          1.56336331	          0.90203204	         -0.00434223	        -13.60386967	         -1.75279231	          1.36189571	         28.14329099	          2.58769570	         -5.19035273	        -22.10846643	        -10.36835306	          0.75735727	          0.49271345	          5.18422721	         -1.71190082	         -4.01146708	          2.26090154	         34.41518067	         -0.41772279	         -4.52219287	          1.20273518	         -2.31145588	          4.08344407	        -13.98644754	         19.38022295	         -5.93030706	        -13.48445303	          8.53105158	         47.18277487	         19.98083543	         86.51662706	         86.51662706	          0.16830573	          0.05000022	          0.05000022	          0.37089757	          0.13200450	          0.05000052	          0.05000060	          0.05000027	          0.05000081	          0.05000012	          0.05002185	          0.07681670	          0.18286891	          0.08508400	          0.09800873	          0.14004185	          0.41951742	          0.05945340	          0.05000212	          0.05001242	          0.05000343	          0.05001416	          0.05950298	          0.48356638	          0.06111943	          0.05000213	          0.05000023	          0.43557836	          0.14416370	          0.14272098	          0.11678810	          0.33921590	          0.53850443	          0.16000073	          0.37349237	          0.57527022	          0.37714119	          0.05000959	          0.05000004	          0.26975347	          0.05000002	          0.05000001	          0.05944689	          0.52955277	          0.06055006	          0.05000004	          0.05000008	          0.30053776	          0.05000009	          0.28331748	          0.05000016	          0.05000017	          0.05000025	          0.14033953	          0.05000001	          0.05000001	          0.05000002	          0.07508024	          0.07058702	          0.05945243	          0.05000383	          0.05000057	          0.29657411	          0.05944647	          0.07062796	          0.05000007	          0.05000012	          0.05000766	          0.39998781	          0.07859042	          0.08402903	          0.21973142	          0.07590664	          0.11584625	          0.07067746	          0.05944640	          0.05944639	          0.05944638	          0.07067726	          0.07067733	          0.05986043	          0.14850236	          0.05944637	          0.05944637	          0.40960983	          0.19681212	          0.15867614	          0.61613042	          0.78618671	          0.60179546	          0.26963414	          0.05752030	          0.11878091	          0.07444819	
